<?xml version="1.0" standalone="no"?>
<!DOCTYPE svg PUBLIC "-//W3C//DTD SVG 20010904//EN"
 "http://www.w3.org/TR/2001/REC-SVG-20010904/DTD/svg10.dtd">
<svg version="1.0" xmlns="http://www.w3.org/2000/svg"
 width="640.000000pt" height="640.000000pt" viewBox="0 0 640.000000 640.000000"
 preserveAspectRatio="xMidYMid meet">
<metadata>
Created by potrace 1.14, written by Peter Selinger 2001-2017
</metadata>
<g transform="translate(0.000000,640.000000) scale(0.100000,-0.100000)"
fill="#000000" stroke="none">
<path d="M3542 5468 c-32 -119 -81 -323 -132 -548 -63 -279 -71 -315 -78 -321
-10 -8 -56 -24 -142 -49 -41 -12 -102 -30 -135 -40 -156 -47 -614 -172 -785
-213 -154 -38 -366 -87 -373 -87 -2 0 -17 19 -32 43 -44 66 -136 176 -273 325
-353 384 -385 413 -412 362 -15 -29 -38 -149 -54 -295 -34 -287 -47 -396 -66
-525 -48 -337 -89 -800 -130 -1465 -16 -266 -75 -782 -125 -1095 -8 -52 -19
-124 -25 -160 -5 -36 -14 -90 -19 -120 -16 -90 -61 -351 -71 -405 -21 -119
-84 -435 -125 -627 -25 -115 -45 -215 -45 -223 0 -12 18 -15 94 -15 l94 0 15
68 c34 150 56 271 61 339 3 40 33 202 67 360 96 454 98 463 139 748 64 442 62
419 105 1265 28 563 40 741 85 1255 25 277 50 634 50 703 0 28 3 52 8 51 4 0
70 -74 147 -165 77 -90 180 -210 229 -266 48 -57 113 -138 143 -180 30 -42 62
-80 72 -83 10 -3 38 -1 62 4 24 5 73 12 109 16 90 9 396 76 630 136 322 83
369 96 510 134 74 21 171 46 215 57 44 11 88 28 99 38 33 32 139 604 153 828
3 56 9 102 12 102 3 0 26 -49 50 -108 49 -117 177 -379 236 -482 21 -36 43
-74 49 -85 31 -56 113 -169 131 -181 17 -11 56 -9 255 11 129 14 285 28 347
32 l112 6 -26 -63 c-105 -262 -123 -629 -43 -880 27 -83 85 -191 131 -244 22
-24 39 -48 39 -53 0 -5 -44 -38 -97 -73 -54 -34 -114 -73 -133 -86 -89 -58
-403 -253 -412 -256 -30 -10 -30 -181 -3 -558 30 -408 35 -505 41 -860 4 -218
2 -474 -5 -635 -14 -350 -40 -855 -45 -876 -4 -20 36 -29 125 -29 l56 0 8 208
c6 184 -5 1023 -20 1593 l-6 206 63 5 c149 13 333 125 534 325 35 35 67 63 73
63 5 0 18 19 30 43 17 35 19 48 10 82 -6 22 -11 47 -12 55 -2 17 79 65 138 81
73 20 95 59 55 99 -45 45 -182 3 -281 -88 l-27 -23 -23 33 c-34 48 -60 67 -91
68 -50 0 -61 -50 -27 -127 17 -37 22 -70 24 -141 l1 -93 -63 -59 c-109 -103
-273 -199 -364 -214 l-37 -6 -6 72 c-3 40 -8 125 -11 188 -6 132 -23 367 -30
422 -5 35 -3 38 42 65 74 42 342 220 495 327 75 53 140 96 143 96 4 0 27 17
53 38 26 22 76 59 112 83 396 267 602 471 710 703 64 139 74 179 68 289 -4 73
-11 106 -33 156 -56 123 -157 212 -289 253 -62 19 -83 20 -205 14 -289 -14
-861 -77 -1193 -131 -51 -8 -102 -15 -113 -15 -35 0 -135 168 -398 670 -93
178 -139 240 -177 240 -4 0 -21 -51 -38 -112z m1986 -825 c-10 -2 -28 -2 -40
0 -13 2 -5 4 17 4 22 1 32 -1 23 -4z m-440 -20 c-10 -2 -26 -2 -35 0 -10 3 -2
5 17 5 19 0 27 -2 18 -5z m-228 -13 c0 -5 -5 -10 -11 -10 -5 0 -7 5 -4 10 3 6
8 10 11 10 2 0 4 -4 4 -10z m380 -20 c13 -9 13 -10 0 -10 -8 0 -22 5 -30 10
-13 9 -13 10 0 10 8 0 22 -5 30 -10z m-27 -135 c3 -42 -20 -42 -25 0 -2 20 -2
38 1 40 9 10 22 -12 24 -40z m-65 -32 c-3 -38 -3 -38 -53 -41 l-50 -3 40 40
c50 52 67 53 63 4z m302 -68 c0 -25 -9 -55 -24 -80 -26 -42 -29 -40 -41 25
-16 91 -16 95 6 130 l21 34 19 -34 c10 -19 18 -53 19 -75z m-497 42 c-4 -27
-11 -37 -24 -37 -24 0 -24 7 2 49 24 40 30 37 22 -12z m817 -16 c8 -32 8 -56
2 -67 -7 -13 -11 -4 -14 37 -3 30 -9 63 -13 73 -6 13 -5 17 2 13 6 -4 16 -29
23 -56z m-127 9 c11 -18 15 -38 11 -55 -8 -31 -22 -33 -28 -2 -19 94 -14 110
17 57z m-789 -34 c-3 -15 -8 -25 -11 -23 -2 3 -1 17 3 31 3 15 8 25 11 23 2
-3 1 -17 -3 -31z m726 -41 c0 -13 -5 -27 -11 -30 -15 -10 -17 -4 -12 32 6 37
23 35 23 -2z m-810 -85 c0 -5 -4 -10 -10 -10 -5 0 -10 5 -10 10 0 6 5 10 10
10 6 0 10 -4 10 -10z m880 -130 c0 -5 -5 -10 -11 -10 -5 0 -7 5 -4 10 3 6 8
10 11 10 2 0 4 -4 4 -10z m-283 -85 c-8 -21 -16 -34 -19 -29 -7 10 20 80 27
72 3 -3 -1 -22 -8 -43z m-407 10 c0 -8 -10 -19 -21 -26 -12 -6 -19 -7 -17 -2
3 4 8 16 11 26 8 21 27 23 27 2z m-161 -188 c13 -33 14 -57 3 -57 -26 0 -52
143 -36 197 7 24 9 17 14 -42 4 -38 12 -83 19 -98z m392 70 c-8 -8 -11 -7 -11
4 0 20 13 34 18 19 3 -7 -1 -17 -7 -23z m141 11 c-9 -9 -15 -9 -24 0 -9 9 -7
12 12 12 19 0 21 -3 12 -12z m-399 -53 c-3 -9 -8 -14 -10 -11 -3 3 -2 9 2 15
9 16 15 13 8 -4z m517 -10 c0 -12 -33 -55 -41 -55 -5 0 -3 14 6 30 13 26 35
41 35 25z m-185 -75 c0 -57 -18 -62 -34 -9 -10 34 -10 43 1 50 23 15 33 3 33
-41z m-97 -52 c11 -44 3 -68 -24 -68 -31 0 -45 68 -18 94 24 24 31 20 42 -26z
m-220 -88 c10 -17 10 -20 -3 -20 -8 0 -15 2 -15 4 0 2 -3 11 -6 20 -9 23 9 20
24 -4z m95 -117 c-7 -2 -19 -2 -25 0 -7 3 -2 5 12 5 14 0 19 -2 13 -5z m-59
-104 c-8 -13 -21 -11 -27 5 -4 10 0 12 14 9 10 -3 16 -9 13 -14z"/>
<path d="M2803 3969 c-46 -22 -106 -101 -123 -159 -42 -145 37 -260 177 -260
71 0 127 24 170 73 41 47 54 96 45 173 -11 83 -58 147 -134 179 -50 20 -85 19
-135 -6z"/>
<path d="M2927 2545 c-22 -21 -21 -27 3 -75 11 -22 20 -54 20 -73 0 -30 -5
-36 -47 -58 -31 -15 -120 -94 -248 -220 -110 -108 -214 -203 -230 -212 -79
-40 -216 -45 -480 -17 -103 12 -124 11 -150 -1 -30 -14 -42 -43 -27 -67 11
-17 180 -58 317 -77 159 -23 321 -2 415 52 25 14 134 114 243 221 184 181 200
194 225 186 52 -14 145 -8 197 15 70 30 100 75 91 136 -7 43 -6 45 18 45 56 0
78 75 31 106 -40 26 -148 -1 -206 -52 -13 -12 -17 -9 -32 25 -22 49 -46 71
-89 77 -25 4 -39 1 -51 -11z"/>
</g>
</svg>
